<?xml version="1.0" encoding="UTF-8"?> <svg xmlns="http://www.w3.org/2000/svg" id="Layer_1" data-name="Layer 1" width="301.5" height="100" viewBox="0 0 301.5 100"><defs><style>.cls-1{fill:#0295d2;}.cls-2{fill:#333;}</style></defs><title>Artboard 1</title><path id="mark" class="cls-1" d="M0,53.6A10.2,10.2,0,1,1,10.2,63.8,10.2,10.2,0,0,1,0,53.6ZM76.4,6.2a6.2,6.2,0,1,1,6.2,6.2,6.2,6.2,0,0,1-6.2-6.2ZM76,86.8A13.2,13.2,0,1,1,89.2,100,13.2,13.2,0,0,1,76,86.8ZM25.9,42.3A31.7,31.7,0,1,1,57.6,74.1,31.7,31.7,0,0,1,25.9,42.3Z"></path><path class="cls-2" d="M109.6,32.9V55.3h3.3V42.5c0-6.7,4.4-7,9.7-7s9,.2,9,6.3V55.3H135V41.8c0-5.9,4.6-6.3,9.1-6.3h1.1c5.1,0,8.6.5,8.6,6.3V55.3h3.3V41.8c0-8.4-5.2-9.2-12.3-9.2-4.4,0-8.8.1-10.8,4.7-1.9-4.7-6.9-4.7-11.3-4.7H122c-3.5,0-7.6.1-9.1,3.9V32.9h-3.3Zm77.1,22.4v-14c0-3.7-.6-6.9-4.7-8a38.5,38.5,0,0,0-9.7-.8l-5.2.3c-4.7.4-6.8,1.8-6.8,6.8H164c0-2.3.7-3.5,3.1-3.8a48.6,48.6,0,0,1,6.5-.3c2.4,0,6.5.1,7.9,1.1s1.8,3.6,1.8,5.5v2.4c-1.4-1.9-2.5-2.3-4.9-2.5l-6.3-.2a59,59,0,0,0-6.5.2c-4.8.4-6.3,2.1-6.3,6.9s4.9,6.7,9.8,6.7h9c2.2-.2,3.9-.8,5.1-2.8v2.6h3.3ZM163,48.9c0-1.5.3-2.9,1.8-3.4s5.3-.8,7.5-.8h3c2.3,0,4.9.1,6.3.8a3.6,3.6,0,0,1-.9,6.6c-2.3.6-6.1.6-8.5.6h-3.9c-2.7,0-5.2-.3-5.2-3.6Zm39.5-7.5-8.8-8.6h-5l11.3,10.5L187.3,55.3h4.9l10.2-9.8,10,9.8h4.9L204.9,43.4l11.2-10.5h-5Zm23.4-8.6V27.8h-3.3v5.1h-5.4v2.9h5.4V48.1c0,7,4.2,7.5,10,7.5,8.9,0,9.3-2.7,9.3-10.2h-3.1c0,.9,0,1.7,0,2.5,0,4.4-3,4.7-6.7,4.7s-6.3-1.1-6.3-6.1V35.7h15.5V32.9H225.8Zm45.9,11.8c0-.4,0-.8,0-1.1,0-10.5-5.2-10.6-14-11h-2.3c-9,0-12.2,2.2-12.2,11.6,0,11.5,6.5,11.5,15.8,11.5,5.3,0,12.7-.3,12.7-7.1h-3.5a3.5,3.5,0,0,1-2.2,3.3c-1.7.7-4.3.8-6.6.8h-1.8a31.9,31.9,0,0,1-6.4-.4c-4.2-.9-4.6-3.9-4.7-7.6h25.2Zm-3.4-2.9H246.7c.1-1.6.2-3.5,1.6-4.6s5.6-1.7,8.3-1.7h2.6c2.6,0,6,.1,7.7,1.7s1.4,3,1.5,4.6ZM298,47.3c-.1,2.6-1.1,4.2-3.8,4.9a26,26,0,0,1-5.8.5,41.9,41.9,0,0,1-6.8-.5c-4.4-.7-4.7-4.1-4.7-7.8a17.8,17.8,0,0,1,.5-5.2,4.4,4.4,0,0,1,2.5-2.8c2-.8,5.2-.8,7.4-.8h.6c2.2,0,5.9.1,7.6,1s2.1,2.4,2.2,4.2h3.5c0-8.5-7.5-8-13.8-8.2h-2c-3.9,0-8.5.5-10.8,4.2-1.2,2-1.3,5.2-1.3,7.6,0,10.1,5.3,11.3,14,11.3H291c6-.2,10.3-1.4,10.5-8.3H298Z"></path></svg> 