<?xml version="1.0" encoding="UTF-8" standalone="no"?>
<!DOCTYPE svg PUBLIC "-//W3C//DTD SVG 1.1//EN" "http://www.w3.org/Graphics/SVG/1.1/DTD/svg11.dtd">
<svg width="100%" height="100%" viewBox="0 0 166 159" version="1.1" xmlns="http://www.w3.org/2000/svg" xmlns:xlink="http://www.w3.org/1999/xlink" xml:space="preserve" xmlns:serif="http://www.serif.com/" style="fill-rule:evenodd;clip-rule:evenodd;stroke-linejoin:round;stroke-miterlimit:2;">
    <g transform="matrix(0.245836,0,0,0.245836,-14.0559,-13.3508)">
        <g id="Layer_2">
            <g>
                <g transform="matrix(5.55556,0,0,5.55556,732.762,668.711)">
                    <path d="M0,-49.737C0,-51.288 -0.077,-52.819 -0.192,-54.341L-1.936,-54.209C-1.825,-52.731 -1.75,-51.243 -1.75,-49.737C-1.75,-26.74 -14.922,-6.774 -34.109,3.051L-33.304,4.604C-13.556,-5.513 0,-26.065 0,-49.737M-5.681,-49.737C-5.681,-51.143 -5.751,-52.533 -5.854,-53.913L-7.599,-53.781C-7.499,-52.445 -7.431,-51.099 -7.431,-49.737C-7.431,-28.93 -19.355,-10.868 -36.722,-1.99L-35.917,-0.437C-17.99,-9.607 -5.681,-28.256 -5.681,-49.737M-114.632,-49.737C-114.632,-51.092 -114.564,-52.43 -114.465,-53.76L-116.209,-53.894C-116.312,-52.52 -116.382,-51.137 -116.382,-49.737C-116.382,-28.439 -104.282,-9.924 -86.603,-0.672L-85.805,-2.229C-102.92,-11.19 -114.632,-29.116 -114.632,-49.737M-120.312,-49.737C-120.312,-51.238 -120.238,-52.72 -120.127,-54.193L-121.872,-54.326C-121.985,-52.809 -122.062,-51.283 -122.062,-49.737C-122.062,-26.24 -108.706,-5.815 -89.194,4.381L-88.396,2.824C-107.343,-7.081 -120.312,-26.917 -120.312,-49.737" style="fill:white;fill-rule:nonzero;"/>
                </g>
                <g transform="matrix(5.55556,0,0,5.55556,102.963,70.7578)">
                    <path d="M0,47.478L0.045,47.242C0.13,46.8 0.148,46.386 0.12,46.004L0.969,45.606L1.203,44.389L-0.149,45.015C-0.521,44.252 -1.244,43.717 -2.314,43.512L-3.945,43.2C-5.861,42.833 -7.143,43.848 -7.516,45.794L-7.561,46.029C-7.934,47.974 -7.117,49.392 -5.202,49.759L-3.571,50.072C-1.655,50.439 -0.373,49.423 0,47.478M-1.048,47.267C-1.309,48.633 -2.083,49.218 -3.419,48.962L-4.932,48.672C-6.268,48.416 -6.771,47.586 -6.51,46.221L-6.468,46.004C-6.207,44.639 -5.433,44.054 -4.097,44.31L-2.584,44.6C-1.876,44.735 -1.403,45.03 -1.152,45.475L-2.147,45.936L-2.381,47.154L-0.94,46.493C-0.943,46.666 -0.969,46.854 -1.006,47.051L-1.048,47.267ZM1.805,40.794L1.951,40.378C2.53,38.737 1.946,37.387 0.229,36.783L-4.279,35.195L-4.651,36.25L-0.199,37.818C0.952,38.223 1.312,38.976 0.94,40.033L0.8,40.429C0.428,41.486 -0.324,41.846 -1.475,41.441L-5.927,39.873L-6.299,40.928L-1.79,42.516C-0.074,43.121 1.227,42.435 1.805,40.794M0.096,33.024C-0.339,32.551 -0.783,32.051 -1.168,31.815L-1.124,31.725C-0.681,31.867 0.008,31.919 0.689,31.989L2.255,32.143L1.214,34.238L0.096,33.024ZM2.795,37.547L3.311,36.508L1.961,35.045L3.35,32.251L5.327,32.452L5.878,31.342L-2.181,30.709L-2.577,31.506L2.795,37.547ZM6.124,30.983L8.68,27.1L7.838,26.545L5.891,29.502L0.47,25.934L-0.139,26.86L6.124,30.983ZM9.163,26.469L9.837,25.589L3.886,21.026L3.212,21.906L9.163,26.469ZM11.716,23.259L12.452,22.429L7.987,18.467L7.251,19.296L11.716,23.259ZM5.343,20.678L9.132,16.408L8.37,15.732L4.581,20.002L5.343,20.678ZM15.923,18.891L16.735,18.135L14.847,16.108L13.616,10.793L12.76,11.59L13.459,14.587C13.564,15.022 13.704,15.437 13.885,15.734L13.812,15.802C13.528,15.615 13.132,15.438 12.684,15.294L9.76,14.383L8.837,15.242L14.009,16.834L15.923,18.891ZM22.48,13.799L22.764,13.612C24.092,12.738 24.451,11.485 23.681,10.315L23.56,10.132C22.923,9.162 21.841,8.918 20.621,9.721L19.944,10.166C19.493,10.463 18.929,10.607 18.461,9.896L18.368,9.754C18.06,9.286 18.172,8.638 18.865,8.181L19.133,8.005C19.818,7.554 20.373,7.596 20.769,8.198L21.695,7.588C20.903,6.385 19.801,6.346 18.581,7.149L18.297,7.336C17.052,8.155 16.842,9.489 17.436,10.392L17.585,10.617C18.173,11.511 19.207,11.955 20.593,11.043L21.228,10.625C21.646,10.35 22.255,10.201 22.7,10.877L22.777,10.994C23.212,11.655 22.989,12.244 22.195,12.767L21.928,12.943C21.142,13.46 20.499,13.392 20.037,12.69L19.111,13.3C19.974,14.612 21.176,14.657 22.48,13.799M27.419,10.727L28.4,10.21L27.108,7.76L27.306,2.308L26.272,2.854L26.164,5.929C26.152,6.377 26.179,6.814 26.276,7.148L26.188,7.194C25.963,6.94 25.626,6.665 25.232,6.41L22.647,4.767L21.532,5.355L26.108,8.242L27.419,10.727ZM33.17,8.224L33.488,8.103C34.974,7.538 35.597,6.393 35.099,5.084L35.021,4.879C34.609,3.794 33.606,3.321 32.241,3.839L31.484,4.127C30.979,4.319 30.397,4.337 30.094,3.542L30.034,3.383C29.835,2.859 30.085,2.251 30.861,1.955L31.16,1.842C31.927,1.55 32.46,1.712 32.716,2.385L33.752,1.991C33.24,0.645 32.173,0.367 30.808,0.886L30.49,1.007C29.097,1.536 28.602,2.793 28.986,3.803L29.082,4.056C29.462,5.056 30.375,5.714 31.927,5.124L32.637,4.854C33.105,4.676 33.731,4.662 34.019,5.42L34.069,5.551C34.35,6.29 34.004,6.817 33.116,7.155L32.817,7.269C31.938,7.603 31.325,7.397 31.026,6.611L29.99,7.005C30.548,8.473 31.711,8.779 33.17,8.224M38.375,6.422L39.445,6.132L37.886,0.37L36.815,0.659L38.375,6.422ZM34.462,0.768L39.973,-0.724L39.706,-1.707L34.196,-0.216L34.462,0.768ZM42.173,5.477L46.777,4.832L46.637,3.833L43.132,4.324L42.814,2.055L45.726,1.647L45.586,0.648L42.674,1.056L42.443,-0.599L41.345,-0.445L42.173,5.477ZM41.274,-0.951L45.779,-1.581L45.639,-2.58L41.134,-1.95L41.274,-0.951ZM54.529,4.551L55.598,4.538L55.503,-2.961L54.434,-2.947L52.185,1.902C51.961,2.375 51.659,3.009 51.603,3.339L51.503,3.341C51.408,2.942 51.17,2.365 50.924,1.868L48.543,-2.873L47.475,-2.859L47.569,4.639L48.638,4.626L48.587,0.597C48.58,0.016 48.541,-0.693 48.465,-1.123L48.565,-1.124C48.682,-0.615 48.859,-0.037 49.136,0.529L51.158,4.594L52.009,4.583L53.829,0.6C54.13,-0.064 54.373,-0.667 54.497,-1.149L54.597,-1.15C54.503,-0.639 54.472,0.062 54.48,0.672L54.529,4.551ZM61.522,5.469L61.759,5.508C63.594,5.812 64.894,5.056 65.182,3.319L64.078,3.136C63.895,4.241 63.167,4.658 61.923,4.452L61.706,4.416C60.335,4.189 59.73,3.43 59.953,2.088L60.204,0.568C60.427,-0.774 61.244,-1.298 62.615,-1.07L62.832,-1.034C64.076,-0.828 64.631,-0.199 64.448,0.906L65.551,1.089C65.839,-0.648 64.853,-1.783 63.017,-2.087L62.78,-2.126C60.826,-2.45 59.429,-1.598 59.111,0.326L58.839,1.964C58.52,3.888 59.568,5.145 61.522,5.469M65.665,6.217L70.121,7.543L70.409,6.576L67.016,5.567L67.669,3.37L70.487,4.209L70.775,3.242L67.957,2.404L68.433,0.802L67.37,0.486L65.665,6.217ZM67.516,-0.003L71.876,1.294L72.163,0.327L67.803,-0.97L67.516,-0.003ZM70.897,7.795L71.913,8.239L73.119,5.481L74.65,6.151L74.754,9.482L75.916,9.991L75.821,7.515C75.795,6.827 75.785,6.528 75.586,6.233L75.626,6.142C76.274,6.306 77.154,6.189 77.531,5.327L77.799,4.713C78.312,3.541 77.759,2.612 76.458,2.043L73.902,0.925L73.494,1.858L76.059,2.98C76.765,3.289 77.024,3.719 76.759,4.324L76.539,4.828C76.274,5.433 75.782,5.535 75.076,5.226L73.527,4.548L74.305,2.77L73.29,2.325L70.897,7.795ZM77.965,11.111L78.932,11.652L81.846,6.441L80.878,5.9L77.965,11.111ZM79.119,4.332L84.102,7.118L84.599,6.229L79.616,3.443L79.119,4.332ZM81.482,13.216L82.408,13.826L86.531,7.562L85.604,6.952L81.482,13.216ZM83.519,14.58L84.399,15.255L86.225,12.874L88.717,14.785L89.33,13.984L86.838,12.074L88.038,10.509L87.158,9.835L83.519,14.58ZM87.468,9.43L91.078,12.197L91.692,11.397L88.082,8.629L87.468,9.43ZM87.74,17.982L88.57,18.718L93.547,13.109L92.717,12.373L87.74,17.982ZM91.518,21.813L91.681,21.989C92.949,23.351 94.44,23.546 95.729,22.346L94.967,21.528C94.147,22.291 93.316,22.176 92.457,21.254L92.307,21.093C91.359,20.075 91.345,19.105 92.34,18.178L93.468,17.128C94.463,16.201 95.43,16.286 96.377,17.303L96.527,17.464C97.386,18.387 97.441,19.224 96.621,19.987L97.383,20.806C98.672,19.607 98.584,18.105 97.316,16.743L97.153,16.568C95.803,15.118 94.177,14.94 92.749,16.269L91.534,17.4C90.106,18.729 90.168,20.364 91.518,21.813M99.134,23.951C99.754,23.783 100.403,23.619 100.79,23.387L100.849,23.467C100.518,23.795 100.154,24.382 99.778,24.953L98.92,26.272L97.541,24.382L99.134,23.951ZM93.876,24.259L94.559,25.196L96.48,24.673L98.319,27.194L97.228,28.855L97.959,29.857L102.238,22.999L101.714,22.28L93.876,24.259ZM98.65,31.295L99.191,32.263L104.402,29.35L103.861,28.382L98.65,31.295ZM103.184,26.125L105.969,31.108L106.858,30.611L104.073,25.628L103.184,26.125ZM100.563,34.918L101.032,35.923L107.827,32.75L107.358,31.746L100.563,34.918ZM102.548,39.907L102.628,40.133C103.286,42.001 104.706,42.815 106.545,42.167L108.111,41.615C109.951,40.967 110.548,39.444 109.89,37.576L109.81,37.349C109.152,35.481 107.732,34.668 105.893,35.316L104.327,35.867C102.487,36.515 101.89,38.039 102.548,39.907M103.56,39.561C103.098,38.25 103.472,37.355 104.755,36.903L106.208,36.391C107.491,35.939 108.343,36.402 108.805,37.714L108.878,37.921C109.34,39.233 108.966,40.128 107.683,40.58L106.23,41.092C104.947,41.544 104.095,41.08 103.633,39.769L103.56,39.561ZM104.03,44.068L104.258,45.113L109.084,44.062C109.436,43.985 109.809,43.863 110.129,43.732L110.15,43.83C109.853,44.017 109.573,44.283 109.193,44.704L105.141,49.169L105.368,50.213L112.695,48.618L112.468,47.574L107.602,48.633C107.27,48.705 106.963,48.803 106.663,48.929L106.642,48.832C106.962,48.609 107.186,48.365 107.542,47.981L111.585,43.518L111.358,42.473L104.03,44.068Z" style="fill:white;fill-rule:nonzero;"/>
                </g>
                <g transform="matrix(5.55556,0,0,5.55556,0,413.122)">
                    <path d="M50.107,51.608L51.216,51.608L51.216,44.109L50.107,44.109L50.107,51.608ZM55.056,51.708L55.396,51.708C56.987,51.708 57.976,50.859 57.976,49.459L57.976,49.238C57.976,48.078 57.206,47.279 55.746,47.279L54.936,47.279C54.396,47.279 53.846,47.089 53.846,46.239L53.846,46.069C53.846,45.508 54.296,45.028 55.126,45.028L55.446,45.028C56.267,45.028 56.707,45.368 56.707,46.089L57.816,46.089C57.816,44.648 56.917,44.009 55.456,44.009L55.116,44.009C53.626,44.009 52.717,45.008 52.717,46.089L52.717,46.359C52.717,47.429 53.336,48.368 54.996,48.368L55.756,48.368C56.257,48.368 56.847,48.578 56.847,49.389L56.847,49.529C56.847,50.319 56.337,50.689 55.386,50.689L55.066,50.689C54.126,50.689 53.626,50.279 53.626,49.439L52.517,49.439C52.517,51.009 53.496,51.708 55.056,51.708M62.296,51.708L62.536,51.708C64.517,51.708 65.755,50.639 65.755,48.689L65.755,47.028C65.755,45.078 64.517,44.009 62.536,44.009L62.296,44.009C60.315,44.009 59.077,45.078 59.077,47.028L59.077,48.689C59.077,50.639 60.315,51.708 62.296,51.708M62.306,50.639C60.916,50.639 60.195,49.989 60.195,48.629L60.195,47.088C60.195,45.728 60.916,45.078 62.306,45.078L62.526,45.078C63.916,45.078 64.637,45.728 64.637,47.088L64.637,48.629C64.637,49.989 63.916,50.639 62.526,50.639L62.306,50.639ZM71.616,44.009L71.376,44.009C69.826,44.009 68.857,44.838 68.857,46.329L68.857,46.689C68.857,48.159 69.746,48.978 71.156,48.978L71.396,48.978C72.336,48.978 72.737,48.618 72.917,48.089L73.017,48.089L73.017,48.319C73.017,50.129 72.186,50.639 71.436,50.639L71.276,50.639C70.546,50.639 70.226,50.379 70.166,49.889L69.066,49.889C69.126,51.059 69.946,51.708 71.236,51.708L71.396,51.708C72.847,51.708 74.135,50.629 74.135,48.459L74.135,46.719C74.135,44.978 73.167,44.009 71.616,44.009M71.606,45.078C72.527,45.078 73.017,45.528 73.017,46.489L73.017,46.729C73.017,47.529 72.527,47.909 71.606,47.909L71.386,47.909C70.466,47.909 69.975,47.499 69.975,46.629L69.975,46.389C69.975,45.498 70.466,45.078 71.386,45.078L71.606,45.078ZM78.056,51.708L78.296,51.708C80.037,51.708 81.115,50.639 81.115,48.689L81.115,47.028C81.115,45.078 80.037,44.009 78.296,44.009L78.056,44.009C76.315,44.009 75.237,45.078 75.237,47.028L75.237,48.689C75.237,50.639 76.315,51.708 78.056,51.708M78.066,50.639C76.946,50.639 76.355,49.989 76.355,48.629L76.355,47.088C76.355,45.728 76.946,45.078 78.066,45.078L78.286,45.078C79.406,45.078 79.997,45.728 79.997,47.088L79.997,48.629C79.997,49.989 79.406,50.639 78.286,50.639L78.066,50.639ZM85.036,51.708L85.276,51.708C87.017,51.708 88.095,50.639 88.095,48.689L88.095,47.028C88.095,45.078 87.017,44.009 85.276,44.009L85.036,44.009C83.295,44.009 82.217,45.078 82.217,47.028L82.217,48.689C82.217,50.639 83.295,51.708 85.036,51.708M85.046,50.639C83.926,50.639 83.335,49.989 83.335,48.629L83.335,47.088C83.335,45.728 83.926,45.078 85.046,45.078L85.266,45.078C86.386,45.078 86.977,45.728 86.977,47.088L86.977,48.629C86.977,49.989 86.386,50.639 85.266,50.639L85.046,50.639ZM89.067,46.618C89.867,46.618 90.397,46.258 90.597,45.899L90.697,45.899L90.697,51.608L91.805,51.608L91.805,44.109L90.916,44.109C90.677,45.079 89.907,45.549 89.067,45.549L89.067,46.618Z" style="fill:white;fill-rule:nonzero;"/>
                </g>
                <g transform="matrix(5.55556,0,0,5.55556,311.132,510.982)">
                    <path d="M0,-11.792C-1.005,-12.242 -2.202,-12.466 -3.592,-12.466L-10.705,-12.466L-10.705,0.674L-3.592,0.674C-2.202,0.674 -1.005,0.449 0,-0.001C1.004,-0.45 1.775,-1.128 2.313,-2.033C2.85,-2.938 3.119,-4.074 3.119,-5.441L3.119,-6.352C3.119,-7.718 2.85,-8.854 2.313,-9.76C1.775,-10.665 1.004,-11.342 0,-11.792M0.964,-5.511C0.964,-4.086 0.584,-3.029 -0.175,-2.34C-0.935,-1.65 -2.067,-1.306 -3.574,-1.306L-8.515,-1.306L-8.515,-10.487L-3.574,-10.487C-2.067,-10.487 -0.935,-10.151 -0.175,-9.479C0.584,-8.808 0.964,-7.742 0.964,-6.282L0.964,-5.511Z" style="fill:white;fill-rule:nonzero;"/>
                </g>
                <g transform="matrix(5.55556,0,0,5.55556,419.856,457.681)">
                    <path d="M0,7.396L-10.162,-2.872L-12.299,-2.872L-12.299,10.268L-10.162,10.268L-10.162,0.012L0,10.268L2.155,10.268L2.155,-2.872L0,-2.872L0,7.396Z" style="fill:white;fill-rule:nonzero;"/>
                </g>
                <g transform="matrix(5.55556,0,0,5.55556,0,-333.156)">
                    <rect x="45.283" y="108.915" width="51.166" height="12.217" style="fill:white;"/>
                </g>
                <g transform="matrix(5.55556,0,0,5.55556,0,-208.739)">
                    <rect x="45.283" y="102.807" width="51.166" height="2.038" style="fill:white;"/>
                </g>
                <g transform="matrix(5.55556,0,0,5.55556,0,-152.239)">
                    <rect x="45.283" y="96.706" width="51.166" height="4.07" style="fill:white;"/>
                </g>
                <g transform="matrix(5.55556,0,0,5.55556,522.836,514.724)">
                    <path d="M0,-13.14L-5.028,-2.871L-10.057,-13.14L-12.527,-13.14L-5.939,0L-4.24,0L2.33,-13.14L0,-13.14Z" style="fill:white;fill-rule:nonzero;"/>
                </g>
            </g>
        </g>
    </g>
</svg>
